<?xml version="1.0" encoding="utf-8"?><svg viewBox="0 0 101 101" xmlns="http://www.w3.org/2000/svg" xmlns:xlink="http://www.w3.org/1999/xlink"><style>:root>svg{display:none}:root>svg:target{display:block}</style><svg fill="none" viewBox="0 0 100 100" id="Component" xmlns="http://www.w3.org/2000/svg"><circle cx="50" cy="50" r="47" stroke="#FF7062" stroke-width="5"/><path d="M73.215 46.94a4.88 4.88 0 0 0 .812-2.705v-.924c0-2.674-2.138-4.85-4.767-4.85-1.311 0-2.5.543-3.364 1.418C63.665 33.125 57.383 28.247 50 28.247c-7.382 0-13.664 4.878-15.897 11.632a4.712 4.712 0 0 0-3.363-1.417c-2.629 0-4.767 2.175-4.767 4.85v.923c0 1 .3 1.931.812 2.704-3.3.708-5.785 3.692-5.785 7.256v2.32c0 .636.507 1.152 1.133 1.152h5.89c.626 0 1.133-.516 1.133-1.152 0-.636-.507-1.153-1.133-1.153h-4.757v-1.167c0-2.818 2.253-5.11 5.023-5.11h5.362a17.118 17.118 0 0 0 2.225 5.396L22.95 67.629c-1.656 1.684-1.656 4.423 0 6.107a4.196 4.196 0 0 0 6.004 0l7.125-7.248c.442-.45.442-1.18 0-1.63a1.12 1.12 0 0 0-1.602 0l-7.126 7.248a1.958 1.958 0 0 1-2.8 0 2.041 2.041 0 0 1 0-2.847l12.689-12.907c3.077 3.671 7.655 6.004 12.759 6.004 7.967 0 14.653-5.682 16.35-13.272h5.36c2.77 0 5.024 2.293 5.024 5.11v1.168H66.086c-.626 0-1.133.517-1.133 1.153s.507 1.152 1.133 1.152h11.781c.626 0 1.133-.516 1.133-1.152v-2.32c0-3.564-2.485-6.548-5.785-7.256Zm-39.974-2.704c0 1.402-1.122 2.544-2.501 2.544-1.38 0-2.502-1.142-2.502-2.544v-.925c0-1.403 1.122-2.544 2.502-2.544 1.38 0 2.501 1.141 2.501 2.544v.925ZM50 60.05c-7.995 0-14.5-6.617-14.5-14.75s6.505-14.75 14.5-14.75 14.5 6.617 14.5 14.75-6.505 14.75-14.5 14.75Zm21.761-15.816c0 1.403-1.122 2.545-2.5 2.545-1.38 0-2.502-1.142-2.502-2.544v-.925c0-1.403 1.122-2.544 2.501-2.544 1.38 0 2.501 1.141 2.501 2.544v.925Z" fill="#FF7062"/><path d="M50 32.856c-6.746 0-12.234 5.583-12.234 12.445 0 3.562 1.479 6.779 3.844 9.05.04.044.084.086.132.124 2.178 2.03 5.078 3.272 8.258 3.272 3.18 0 6.08-1.242 8.258-3.272.048-.038.091-.08.132-.124a12.513 12.513 0 0 0 3.844-9.05c0-6.862-5.488-12.445-12.234-12.445Zm0 22.586a9.814 9.814 0 0 1-6.173-2.184c1.203-2.317 3.549-3.775 6.173-3.775s4.97 1.458 6.173 3.775A9.814 9.814 0 0 1 50 55.442ZM47.613 44.75v-.895c0-1.339 1.07-2.428 2.387-2.428 1.316 0 2.387 1.09 2.387 2.428v.895c0 1.34-1.07 2.429-2.387 2.429-1.316 0-2.387-1.09-2.387-2.429Zm10.218 6.82a9.216 9.216 0 0 0-4.335-3.701 4.76 4.76 0 0 0 1.157-3.118v-.896c0-2.61-2.087-4.733-4.653-4.733-2.566 0-4.653 2.124-4.653 4.733v.896c0 1.193.438 2.284 1.157 3.118a9.217 9.217 0 0 0-4.335 3.7 10.201 10.201 0 0 1-2.138-6.268c0-5.591 4.472-10.14 9.969-10.14 5.497 0 9.969 4.549 9.969 10.14 0 2.365-.8 4.542-2.138 6.269ZM39.11 61.776a1.132 1.132 0 0 0-.8-.338c-.299 0-.59.123-.802.338-.21.214-.332.511-.332.814 0 .303.122.6.332.815.211.214.503.338.801.338.298 0 .59-.124.801-.338.21-.214.332-.512.332-.815 0-.303-.121-.6-.332-.814Z" fill="#FF7062"/></svg><svg fill="none" viewBox="0 0 101 101" id="Component_1" xmlns="http://www.w3.org/2000/svg"><circle cx="50.5" cy="50.5" r="47.5" stroke="#FF7062" stroke-width="5"/><path d="M54.414 39.233c0 .575-.36.936-.685.936-.327 0-.686-.361-.686-.936 0-.576.36-.937.686-.937.326 0 .685.361.685.937ZM48.054 63.55c0-.576.36-.937.685-.937.327 0 .686.36.686.936 0 .575-.36.936-.685.936-.327 0-.686-.36-.686-.936Z" fill="#FF7062" stroke="#FF7062" stroke-width=".5"/><path d="M67.9 43.532a1.036 1.036 0 0 0-1.204.098.938.938 0 0 0-.235 1.138c1.047 2.087 2.175 6.115 2.175 10.026 0 6.472-2.884 10.6-9.606 10.6-2.574 0-5.074-1.808-6.858-4.96-.22-.388-.031-.723.159-1.09.283-.545.67-1.293.67-2.632 0-1.618-.695-2.737-2.066-3.326-1.028-.442-2.328-.532-3.963-.532-2.091 0-3.68.42-4.721 1.25-1.137.907-1.307 2.023-1.307 2.608 0 2.032.847 3.013 1.466 3.728.325.376.61.685.666 1.143 1.03 8.221 8.32 14.42 16.958 14.42 9.419 0 17.081-7.355 17.081-16.397 0-6.296-3.703-12.756-9.215-16.074Zm-20.928 11.25c3.412 0 4.02.506 4.02 1.93 0 .748-.16 1.172-.352 1.56a6.259 6.259 0 0 0-2.663-.595c-1.51 0-2.948.547-4.047 1.502-.526-.61-.977-1.153-.977-2.467 0-1.208 1.503-1.93 4.02-1.93Zm13.062 19.293c-7.622 0-14.054-5.47-14.963-12.722a3.17 3.17 0 0 0-.091-.458 4.1 4.1 0 0 1 2.997-1.29c.751 0 1.466.195 2.094.565.017.418.132.826.336 1.186 2.147 3.792 5.29 5.967 8.623 5.967 7.854 0 11.615-4.959 11.615-12.53 0-2.683-.478-5.38-1.13-7.596 3.43 3.194 5.59 7.849 5.59 12.409 0 7.978-6.76 14.469-15.07 14.469Z" fill="#FF7062" stroke="#FF7062" stroke-width=".5"/><path d="M51.244 66.45c2.138 2.67 5.295 4.203 8.662 4.203.405 0 .745.34.745.771 0 .432-.34.772-.745.772-3.81 0-7.385-1.734-9.81-4.76a.79.79 0 0 1 .103-1.091.728.728 0 0 1 1.045.106ZM43.439 37.388c2.574 0 5.073 1.807 6.857 4.96.22.387.031.722-.158 1.089-.283.546-.67 1.294-.67 2.633 0 1.618.694 2.737 2.065 3.326 1.029.442 2.328.532 3.963.532 2.091 0 3.68-.42 4.722-1.25 1.137-.907 1.306-2.024 1.306-2.608 0-2.032-.847-3.013-1.466-3.728-.324-.376-.61-.685-.666-1.143-1.03-8.221-8.32-14.421-16.958-14.421-9.418 0-17.081 7.356-17.081 16.398 0 6.296 3.703 12.756 9.215 16.074.383.23.873.186 1.204-.098a.938.938 0 0 0 .235-1.138c-1.047-2.087-2.175-6.115-2.175-10.026 0-6.473 2.884-10.6 9.607-10.6Zm12.057 10.61c-3.412 0-4.02-.504-4.02-1.928 0-.749.16-1.172.352-1.561a6.259 6.259 0 0 0 2.663.596c1.51 0 2.949-.547 4.047-1.502.527.61.977 1.152.977 2.467 0 1.208-1.503 1.929-4.02 1.929Zm-23.673-.01c0 2.683.478 5.382 1.13 7.597-3.43-3.194-5.59-7.849-5.59-12.41 0-7.977 6.76-14.468 15.07-14.468 7.623 0 14.055 5.47 14.964 12.722.02.157.05.31.091.457a4.101 4.101 0 0 1-2.997 1.29c-.75 0-1.466-.194-2.094-.564a2.63 2.63 0 0 0-.336-1.186c-2.146-3.792-5.29-5.967-8.622-5.967-7.855 0-11.616 4.958-11.616 12.53Z" fill="#FF7062" stroke="#FF7062" stroke-width=".5"/><path d="m51.225 36.331-.196.156.196-.156c-2.138-2.669-5.296-4.202-8.662-4.202a.758.758 0 0 1-.745-.771c0-.433.34-.772.745-.772 3.809 0 7.384 1.734 9.808 4.76a.79.79 0 0 1-.102 1.09.728.728 0 0 1-1.044-.105Z" fill="#FF7062" stroke="#FF7062" stroke-width=".5"/></svg><svg fill="none" viewBox="0 0 98 98" id="Component_2" xmlns="http://www.w3.org/2000/svg"><circle cx="49" cy="49" r="46" stroke="#FF7062" stroke-width="5"/><path d="M59.183 43.664c-.578-1.817-.804-3.252 1.253-6.507 1.495-2.366 2.222-4.708 2.222-7.157h-3.341c0 1.568-.396 3.097-1.205 4.645H39.888c-.809-1.548-1.205-3.077-1.205-4.645h-3.341c0 2.45.727 4.79 2.222 7.157 2.057 3.255 1.831 4.69 1.253 6.507-.344 1.083-.923 2.01-1.656 3.185C34.983 50.341 32 55.124 32 68.991h3.342c0-5.344.457-9.234 1.133-12.185h25.05c.676 2.951 1.133 6.84 1.133 12.185H66c0-13.867-2.983-18.65-5.161-22.142-.733-1.174-1.311-2.102-1.656-3.185ZM37.35 53.76c.856-2.424 1.854-4.025 2.715-5.405.774-1.242 1.506-2.414 1.96-3.842.694-2.18.838-4.114-.427-6.821H56.4c-1.265 2.707-1.121 4.64-.428 6.82.455 1.429 1.186 2.601 1.961 3.843.86 1.38 1.859 2.981 2.715 5.405H37.351Zm13.278-4.95c0 .841-.748 1.523-1.67 1.523-.924 0-1.672-.682-1.672-1.523 0-.841.748-1.523 1.671-1.523s1.671.682 1.671 1.523Z" fill="#FF7062"/></svg><svg fill="none" viewBox="0 0 98 98" id="Component_3" xmlns="http://www.w3.org/2000/svg"><path d="m75.585 31.68-.006-.004-.01-.007c-1.743-1.118-3.898-1.556-5.992-1.217-2.094.34-3.956 1.428-5.178 3.027l-8.97 11.77V33.838a6.884 6.884 0 0 0-2.258-5.13 7.95 7.95 0 0 0-2.563-1.547 8.466 8.466 0 0 0-3.011-.527h-.013c-4.56 0-8.27 3.254-8.27 7.204v20.701l-7.218-1.784a8.652 8.652 0 0 0-6.068.732c-1.838.97-3.184 2.57-3.744 4.45a.618.618 0 0 0-.013.04c-.548 1.888-.258 3.898.805 5.59 1.064 1.693 2.814 2.928 4.867 3.436l24.266 5.976a8.73 8.73 0 0 0 2.089.254c1.758-.004 3.465-.538 4.861-1.52 1.396-.983 2.402-2.359 2.864-3.917a6.848 6.848 0 0 0-.598-5.304 7.612 7.612 0 0 0 1.714-1.64L77.55 41.94c1.22-1.6 1.697-3.58 1.329-5.503-.369-1.924-1.553-3.635-3.294-4.757ZM40.998 56.94V46.307h12.748V56.94c0 3.298-2.762 5.942-6.157 5.942h-.013c-3.504 0-6.578-2.756-6.578-5.942Zm6.586-28.758h.012c3.506 0 6.15 2.454 6.15 5.656v10.92H40.998v-10.92c0-3.097 2.954-5.657 6.586-5.657ZM23.889 58.404a.574.574 0 0 0 .012-.038c.436-1.49 1.498-2.76 2.953-3.533a6.834 6.834 0 0 1 4.805-.585l7.655 1.892v.8c0 1.81.786 3.61 2.17 5.003l-1.848 6.337-11.257-2.772c-1.617-.4-2.997-1.371-3.838-2.702a5.42 5.42 0 0 1-.652-4.402Zm36.528 8.925-.012.037a5.648 5.648 0 0 1-1.093 2.037 6.206 6.206 0 0 1-1.859 1.499c-.72.382-1.516.63-2.341.73a6.88 6.88 0 0 1-2.467-.148L41.262 68.68l1.633-5.62a8.704 8.704 0 0 0 4.681 1.369h.013c3.213 0 5.98-1.846 7.189-4.508l1.15.293c1.62.402 3 1.375 3.84 2.708a5.426 5.426 0 0 1 .65 4.407Zm1.343-7.365a6.013 6.013 0 0 1-1.26 1.227c-1.062-1.2-2.51-2.061-4.136-2.46l-1.096-.27c.108-.502.161-1.01.161-1.521v-9c.01-.012.021-.023.03-.036l2.668-3.5 10.393 6.688-6.76 8.872Zm14.41-18.912-6.684 8.773-10.394-6.687 6.686-8.772c.965-1.263 2.434-2.123 4.088-2.391 1.653-.27 3.355.075 4.732.958l.006.003.01.007c1.377.886 2.314 2.238 2.606 3.758.292 1.521-.085 3.086-1.05 4.351Z" fill="#FF7062" stroke="#FF7062"/><circle cx="49" cy="49" r="46" stroke="#FF7062" stroke-width="5"/><path stroke="#FF7062" stroke-width="4" d="M19.85 13.318 85.3 78.767"/><circle cx="36" cy="63" r="2" fill="#FF7062"/></svg></svg>