<svg width="98" height="98" viewBox="0 0 98 98" fill="none" xmlns="http://www.w3.org/2000/svg">
<circle cx="49" cy="49" r="46" stroke="#FF7062" stroke-width="5"/>
<path d="M59.1829 43.6643C58.6046 41.8467 58.3792 40.412 60.436 37.1573C61.9315 34.7906 62.6585 32.4494 62.6585 30H59.317C59.317 31.568 58.9208 33.0967 58.1119 34.6454H39.8882C39.0792 33.0967 38.6831 31.568 38.6831 30H35.3415C35.3415 32.4494 36.0686 34.7906 37.5641 37.1573C39.6209 40.412 39.3954 41.8467 38.8172 43.664C38.4726 44.7468 37.894 45.6747 37.1614 46.8494C34.9829 50.3412 32 55.1238 32 68.991H35.3415C35.3415 63.6468 35.7987 59.757 36.4755 56.8063H61.5246C62.2014 59.757 62.6585 63.6468 62.6585 68.991H66.0001C66.0001 55.1238 63.0168 50.3412 60.839 46.8494C60.106 45.6747 59.5275 44.7468 59.1829 43.6643ZM37.3507 53.7601C38.2073 51.336 39.2052 49.735 40.066 48.355C40.8404 47.1133 41.572 45.9406 42.0262 44.5127C42.7203 42.3322 42.8642 40.3989 41.5987 37.6916H56.401C55.1358 40.3989 55.2798 42.3322 55.9735 44.5127C56.4278 45.9406 57.1594 47.1133 57.9341 48.355C58.7946 49.735 59.7928 51.336 60.649 53.7601H37.3507ZM50.629 48.8101C50.629 49.6514 49.8811 50.3332 48.9583 50.3332C48.0354 50.3332 47.2875 49.6514 47.2875 48.8101C47.2875 47.9688 48.0354 47.287 48.9583 47.287C49.8811 47.287 50.629 47.9688 50.629 48.8101Z" fill="#FF7062"/>
</svg>
