<svg width="100" height="100" viewBox="0 0 100 100" fill="none" xmlns="http://www.w3.org/2000/svg">
<circle cx="50" cy="50" r="47" stroke="#FF7062" stroke-width="5"/>
<path d="M73.2152 46.9394C73.7277 46.1664 74.0272 45.2358 74.0272 44.2354V43.3111C74.0272 40.6373 71.8887 38.4619 69.2602 38.4619C67.9487 38.4619 66.7593 39.0036 65.8965 39.8785C63.6642 33.1249 57.3817 28.2466 50 28.2466C42.6183 28.2466 36.3358 33.1248 34.1035 39.8785C33.2407 39.0036 32.0514 38.4619 30.7398 38.4619C28.1113 38.4619 25.9728 40.6373 25.9728 43.3111V44.2354C25.9728 45.2358 26.2723 46.1664 26.7848 46.9394C23.4851 47.6468 21 50.6307 21 54.1947V56.5148C21 57.1512 21.5073 57.6672 22.1328 57.6672H28.0234C28.649 57.6672 29.1562 57.1512 29.1562 56.5148C29.1562 55.8785 28.649 55.3625 28.0234 55.3625H23.2656V54.1947C23.2656 51.3769 25.5192 49.0844 28.2893 49.0844H33.6508C34.0856 51.0297 34.8476 52.8499 35.8758 54.481L22.9505 67.6291C21.2954 69.3128 21.2954 72.0525 22.9506 73.7363C23.7782 74.5782 24.8652 74.999 25.9523 74.999C27.0395 74.999 28.1266 74.5781 28.9543 73.7363L36.08 66.4876C36.5224 66.0376 36.5224 65.3079 36.08 64.8578C35.6375 64.4079 34.9205 64.4079 34.4779 64.8578L27.3522 72.1065C26.5802 72.8917 25.3244 72.8916 24.5525 72.1066C23.7807 71.3214 23.7807 70.0438 24.5525 69.2586L37.2408 56.3517C40.3183 60.0233 44.8961 62.356 50 62.356C57.9668 62.356 64.6529 56.6738 66.3492 49.0844H71.7107C74.4808 49.0844 76.7344 51.3769 76.7344 54.1947V55.3625H66.0859C65.4604 55.3625 64.9531 55.8785 64.9531 56.5148C64.9531 57.1512 65.4604 57.6672 66.0859 57.6672H77.8672C78.4927 57.6672 79 57.1512 79 56.5148V54.1947C79 50.6307 76.5149 47.6468 73.2152 46.9394ZM33.2412 44.2355C33.2412 45.6384 32.1191 46.7798 30.7398 46.7798C29.3605 46.7798 28.2384 45.6384 28.2384 44.2355V43.3112C28.2384 41.9081 29.3605 40.7667 30.7398 40.7667C32.1191 40.7667 33.2412 41.9081 33.2412 43.3112V44.2355ZM50 60.0513C42.0047 60.0513 35.5 53.4344 35.5 45.3013C35.5 37.1681 42.0047 30.5513 50 30.5513C57.9953 30.5513 64.5 37.1681 64.5 45.3013C64.5 53.4344 57.9953 60.0513 50 60.0513ZM71.7614 44.2355C71.7614 45.6384 70.6394 46.7798 69.2601 46.7798C67.8808 46.7798 66.7587 45.6384 66.7587 44.2355V43.3112C66.7587 41.9081 67.8808 40.7667 69.2601 40.7667C70.6394 40.7667 71.7614 41.9081 71.7614 43.3112V44.2355Z" fill="#FF7062"/>
<path d="M50 32.856C43.2539 32.856 37.7656 38.4388 37.7656 45.3013C37.7656 48.8632 39.2446 52.0799 41.6102 54.3506C41.6506 54.3951 41.694 54.4371 41.7416 54.4751C43.9195 56.5056 46.8199 57.7466 50 57.7466C53.1801 57.7466 56.0805 56.5055 58.2584 54.4751C58.306 54.4372 58.3494 54.3951 58.3898 54.3506C60.7554 52.0799 62.2344 48.8632 62.2344 45.3013C62.2344 38.4389 56.7461 32.856 50 32.856ZM50 55.4419C47.6706 55.4419 45.5255 54.6248 43.8265 53.2577C45.0301 50.9411 47.3757 49.4835 50 49.4835C52.6243 49.4835 54.9699 50.9411 56.1735 53.2577C54.4745 54.6248 52.3294 55.4419 50 55.4419ZM47.6128 44.7504V43.8552C47.6128 42.5162 48.6837 41.4269 50 41.4269C51.3163 41.4269 52.3872 42.5162 52.3872 43.8552V44.7504C52.3872 46.0895 51.3163 47.1788 50 47.1788C48.6837 47.1788 47.6128 46.0895 47.6128 44.7504ZM57.8306 51.5699C56.7928 49.8855 55.2738 48.601 53.496 47.8686C54.2152 47.0351 54.6528 45.9442 54.6528 44.7506V43.8553C54.6528 41.2456 52.5655 39.1223 50 39.1223C47.4345 39.1223 45.3472 41.2456 45.3472 43.8553V44.7506C45.3472 45.9442 45.7847 47.0351 46.504 47.8686C44.7262 48.6011 43.2073 49.8855 42.1694 51.5699C40.8309 49.8435 40.0312 47.6656 40.0312 45.3013C40.0312 39.7098 44.5033 35.1606 50 35.1606C55.4967 35.1606 59.9688 39.7098 59.9688 45.3013C59.9688 47.6656 59.1691 49.8435 57.8306 51.5699Z" fill="#FF7062"/>
<path d="M39.1102 61.7756C38.8995 61.5613 38.6073 61.438 38.3093 61.438C38.0114 61.438 37.7191 61.5613 37.5084 61.7756C37.2978 61.99 37.1765 62.2873 37.1765 62.5903C37.1765 62.8934 37.2977 63.1907 37.5084 63.405C37.7191 63.6193 38.0114 63.7427 38.3093 63.7427C38.6073 63.7427 38.8995 63.6194 39.1102 63.405C39.3208 63.1907 39.4421 62.8934 39.4421 62.5903C39.4421 62.2873 39.3209 61.99 39.1102 61.7756Z" fill="#FF7062"/>
</svg>
