<svg width="101" height="101" viewBox="0 0 101 101" fill="none" xmlns="http://www.w3.org/2000/svg">
<circle cx="50.5" cy="50.5" r="47.5" stroke="#FF7062" stroke-width="5"/>
<path d="M54.4141 39.2325C54.4141 39.8078 54.0548 40.1687 53.7286 40.1687C53.4024 40.1687 53.0432 39.8078 53.0432 39.2325C53.0432 38.6573 53.4024 38.2964 53.7286 38.2964C54.0548 38.2964 54.4141 38.6573 54.4141 39.2325Z" fill="#FF7062" stroke="#FF7062" stroke-width="0.5"/>
<path d="M48.054 63.5491C48.054 62.9738 48.4133 62.6128 48.7395 62.6128C49.0657 62.6128 49.425 62.9738 49.425 63.5491C49.425 64.1244 49.0657 64.4854 48.7395 64.4854C48.4133 64.4854 48.054 64.1244 48.054 63.5491Z" fill="#FF7062" stroke="#FF7062" stroke-width="0.5"/>
<path d="M67.8997 43.5319C67.5205 43.3032 67.0295 43.3435 66.6963 43.6302C66.3627 43.9166 66.2665 44.3804 66.4608 44.7678C67.5083 46.8552 68.6359 50.8827 68.6359 54.7935C68.6359 61.2664 65.7524 65.3934 59.0296 65.3934C56.4557 65.3934 53.9564 63.5863 52.1725 60.4344C51.9523 60.0463 52.1407 59.7114 52.3307 59.3448C52.6137 58.7988 53.0011 58.0509 53.0011 56.7121C53.0011 55.0942 52.306 53.9747 50.935 53.3862C49.9067 52.9442 48.6072 52.8537 46.9725 52.8537C44.881 52.8537 43.2922 53.2746 42.2506 54.1047C41.1136 55.0105 40.944 56.1273 40.944 56.7121C40.944 58.7442 41.7914 59.7246 42.4099 60.4401C42.7345 60.8161 43.0195 61.1247 43.0764 61.5825C44.1059 69.8042 51.3962 76.0039 60.0343 76.0039C69.4527 76.0039 77.1151 68.6478 77.1151 59.6059C77.1151 53.3097 73.4117 46.8499 67.8997 43.5319ZM46.9725 54.7829C50.3844 54.7829 50.9916 55.2882 50.9916 56.7121C50.9916 57.4604 50.8318 57.8839 50.6399 58.2728C49.8161 57.8843 48.9028 57.6767 47.9773 57.6767C46.4674 57.6767 45.0286 58.2238 43.9304 59.1786C43.4037 58.5682 42.9535 58.0264 42.9535 56.7121C42.9535 55.5041 44.456 54.7829 46.9725 54.7829ZM60.0343 74.0747C52.4123 74.0747 45.98 68.6052 45.0714 61.3531C45.0517 61.1956 45.0211 61.0433 44.9799 60.8953C45.7382 60.081 46.8277 59.6059 47.9773 59.6059C48.7281 59.6059 49.4428 59.7995 50.0708 60.1696C50.0881 60.5878 50.2031 60.9959 50.4071 61.3561C52.5536 65.1477 55.6962 67.3226 59.0296 67.3226C66.8839 67.3226 70.6455 62.3644 70.6455 54.7935C70.6455 52.1103 70.167 49.4121 69.5159 47.1966C72.945 50.3907 75.1056 55.0456 75.1056 59.6059C75.1056 67.5841 68.3447 74.0747 60.0343 74.0747Z" fill="#FF7062" stroke="#FF7062" stroke-width="0.5"/>
<path d="M51.2436 66.4507C53.3815 69.1198 56.5388 70.653 59.9055 70.653C60.3109 70.653 60.6505 70.9921 60.6505 71.4243C60.6505 71.8565 60.3109 72.1956 59.9055 72.1956C56.0962 72.1956 52.5209 70.4619 50.0967 67.4355C49.8316 67.1043 49.8793 66.615 50.1992 66.345C50.5152 66.0783 50.9816 66.1237 51.2436 66.4507Z" fill="#FF7062" stroke="#FF7062" stroke-width="0.5"/>
<path d="M43.4386 37.3883C46.0125 37.3883 48.5118 39.1954 50.2957 42.3473C50.5158 42.7354 50.3274 43.0704 50.1375 43.437C49.8545 43.983 49.4671 44.7309 49.4671 46.0697C49.4671 47.6876 50.1622 48.8071 51.5331 49.3956C52.5615 49.8376 53.861 49.928 55.4956 49.928C57.5872 49.928 59.1759 49.5071 60.2176 48.6771C61.3546 47.7713 61.5242 46.6544 61.5242 46.0697C61.5242 44.0376 60.6768 43.0572 60.0582 42.3417C59.7337 41.9656 59.4487 41.657 59.3918 41.1992C58.3623 32.9776 51.072 26.7778 42.4338 26.7778C33.0155 26.7778 25.353 34.134 25.353 43.1759C25.353 49.4721 29.0565 55.9319 34.5685 59.2499C34.9508 59.4805 35.441 59.4357 35.7719 59.1516C36.1055 58.8652 36.2016 58.4014 36.0073 58.014C34.9598 55.9266 33.8322 51.899 33.8322 47.9883C33.8322 41.5154 36.7158 37.3883 43.4386 37.3883ZM55.4956 47.9988C52.0838 47.9988 51.4766 47.4936 51.4766 46.0697C51.4766 45.3213 51.6364 44.8978 51.8283 44.509C52.6521 44.8975 53.5654 45.1051 54.4909 45.1051C56.0008 45.1051 57.4396 44.558 58.5378 43.6032C59.0645 44.2136 59.5147 44.7554 59.5147 46.0697C59.5147 47.2777 58.0122 47.9988 55.4956 47.9988ZM31.8227 47.9883C31.8227 50.6714 32.3011 53.3697 32.9523 55.5852C29.5231 52.3911 27.3625 47.7362 27.3625 43.1759C27.3625 35.1977 34.1234 28.707 42.4338 28.707C50.0558 28.707 56.4882 34.1765 57.3968 41.4287C57.4165 41.5862 57.4471 41.7384 57.4883 41.8865C56.73 42.7007 55.6405 43.1759 54.4909 43.1759C53.7401 43.1759 53.0254 42.9822 52.3974 42.6122C52.3801 42.194 52.2651 41.7859 52.061 41.4257C49.9146 37.634 46.7719 35.4592 43.4386 35.4592C35.5842 35.4592 31.8227 40.4174 31.8227 47.9883Z" fill="#FF7062" stroke="#FF7062" stroke-width="0.5"/>
<path d="M51.2246 36.3312L51.0294 36.4874L51.2246 36.3311C49.0866 33.6621 45.9294 32.1289 42.5627 32.1289C42.1573 32.1289 41.8177 31.7898 41.8177 31.3577C41.8177 30.9255 42.1573 30.5864 42.5627 30.5864C46.372 30.5864 49.9472 32.3199 52.3715 35.3463C52.6366 35.6775 52.5888 36.1667 52.2691 36.4367C51.9531 36.703 51.4866 36.6584 51.2246 36.3312Z" fill="#FF7062" stroke="#FF7062" stroke-width="0.5"/>
</svg>
