<svg width="98" height="98" viewBox="0 0 98 98" fill="none" xmlns="http://www.w3.org/2000/svg">
<path d="M75.5851 31.6801L75.5792 31.6762L75.5688 31.6694C73.8256 30.5506 71.6706 30.1129 69.5766 30.4522C67.4826 30.7915 65.6205 31.8802 64.3988 33.4795L55.4292 45.2488V33.8377C55.4292 31.8705 54.6273 30.036 53.1714 28.7078C52.4359 28.0427 51.565 27.5172 50.6084 27.1614C49.6519 26.8056 48.6284 26.6265 47.5965 26.6343H47.5837C43.0238 26.6343 39.3141 29.8876 39.3141 33.8377V54.539L32.0955 52.7546C30.047 52.2529 27.8657 52.5161 26.0276 53.4868C24.1895 54.4576 22.8439 56.057 22.2843 57.9361C22.2795 57.9494 22.275 57.9629 22.2711 57.9766C21.7233 59.8647 22.0128 61.8753 23.0762 63.5675C24.1395 65.2596 25.8899 66.4951 27.9432 67.0028L52.2095 72.9787C52.8905 73.147 53.5926 73.2325 54.2978 73.2329C56.0557 73.2287 57.7635 72.6945 59.1591 71.7123C60.5547 70.7301 61.561 69.3541 62.0235 67.7956C62.0281 67.7829 62.0322 67.77 62.0355 67.7568C62.5474 65.9929 62.3302 64.1171 61.4258 62.4916C62.0866 62.0307 62.6647 61.4773 63.1391 60.8518L77.5502 41.9404C78.7693 40.3401 79.2471 38.3604 78.8786 36.4365C78.5101 34.5126 77.3255 32.8018 75.5851 31.6801ZM40.9978 56.9409V46.3057H53.7455V56.9409C53.7455 60.239 50.9836 62.8828 47.5887 62.8828H47.5761C44.0717 62.8828 40.9978 60.1272 40.9978 56.9409ZM47.5837 28.1815H47.5965C51.102 28.1815 53.7455 30.6356 53.7455 33.8377V44.7585H40.9978V33.8377C40.9978 30.7406 43.9521 28.1815 47.5837 28.1815ZM23.8892 58.4053C23.8936 58.3928 23.8977 58.3801 23.9012 58.3674C24.3374 56.8769 25.3991 55.6063 26.8535 54.8343C28.3078 54.0623 30.036 53.8518 31.6589 54.2492L39.3141 56.1414V56.941C39.3141 58.7502 40.1005 60.5518 41.4842 61.9438L39.6364 68.2809L28.3787 65.5086C26.7617 65.1087 25.3824 64.1375 24.5414 62.8069C23.7004 61.4763 23.4659 59.8941 23.8892 58.4053ZM60.4173 67.3305C60.4131 67.3423 60.4092 67.3545 60.4053 67.3666C60.19 68.1053 59.8184 68.7978 59.3119 69.4045C58.8054 70.0112 58.1737 70.5203 57.4531 70.9027C56.7324 71.285 55.9369 71.5332 55.1118 71.6331C54.2868 71.7329 53.4484 71.6824 52.6446 71.4845L41.2623 68.6814L42.8955 63.0605C44.2667 63.9458 45.9002 64.4238 47.5761 64.4299H47.5891C50.802 64.4299 53.5683 62.5844 54.778 59.9219L55.9285 60.2154C57.5473 60.6167 58.9277 61.5899 59.7687 62.9228C60.6096 64.2557 60.8426 65.8401 60.4173 67.3305ZM61.7599 59.9652C61.4078 60.4285 60.9836 60.8418 60.5009 61.1919C59.4381 59.992 57.9903 59.131 56.3639 58.7314L55.2683 58.4613C55.3755 57.9605 55.4294 57.4513 55.4292 56.9409V47.9413C55.4394 47.9295 55.45 47.918 55.4596 47.9054L58.1267 44.4059L68.5198 51.0933L61.7599 59.9652ZM76.1709 41.053L69.4855 49.8263L59.0925 43.139L65.778 34.367C66.7426 33.1042 68.2125 32.2443 69.8658 31.9756C71.5191 31.7069 73.2208 32.0514 74.5982 32.9336L74.6037 32.9373L74.6142 32.9442C75.9907 33.8298 76.9281 35.1816 77.22 36.7023C77.5119 38.223 77.1345 39.788 76.1709 41.053Z" fill="#FF7062" stroke="#FF7062"/>
<circle cx="49" cy="49" r="46" stroke="#FF7062" stroke-width="5"/>
<line x1="19.8504" y1="13.3175" x2="85.3001" y2="78.7671" stroke="#FF7062" stroke-width="4"/>
<circle cx="36" cy="63" r="2" fill="#FF7062"/>
</svg>
