<svg width="75" height="47" viewBox="0 0 75 47" fill="none" xmlns="http://www.w3.org/2000/svg">
<path d="M2.89887 20.1022C2.89887 20.1022 -5.82144 12.0261 6.9871 0C6.9871 0 -0.564392 15.1588 17.4563 23.8101C17.4563 23.8101 9.81849 25.1412 2.89887 20.1022Z" fill="white"/>
<path d="M61.7035 14.2171C61.7035 14.2171 45.2487 2.32669 28.4624 15.0342C28.4624 15.0342 13.3007 25.5382 2.91089 20.1017C2.91089 20.1017 16.8002 34.0463 35.0471 21.2969C35.035 21.2969 49.9101 11.2784 61.7035 14.2171Z" fill="white"/>
<path d="M71.931 26.8978C71.931 26.8978 80.6496 34.974 67.841 47.0001C67.841 47.0001 75.3943 31.8412 57.3718 23.1914C57.3718 23.1914 65.0096 21.8603 71.931 26.8978Z" fill="white"/>
<path d="M13.1316 32.7824C13.1316 32.7824 29.5916 44.6676 46.3726 31.9697C46.3726 31.9697 61.5343 21.4664 71.9241 26.9025C71.9241 26.9025 58.0331 12.9588 39.788 25.7074C39.7949 25.7045 24.9198 35.7208 13.1316 32.7824Z" fill="white"/>
<path d="M67.2368 17.5779C66.4619 17.5862 65.7016 17.3954 65.052 17.0297C64.4023 16.6641 63.8926 16.14 63.5871 15.5237C63.2816 14.9074 63.1941 14.2266 63.3357 13.5673C63.4772 12.9079 63.8415 12.2997 64.3824 11.8195C64.9234 11.3393 65.6166 11.0087 66.3747 10.8694C67.1327 10.7301 67.9215 10.7884 68.6412 11.0369C69.361 11.2855 69.9794 11.7131 70.4184 12.2657C70.8574 12.8183 71.0972 13.4712 71.1075 14.1417C71.1143 14.5874 71.0196 15.0298 70.8287 15.4437C70.6379 15.8576 70.3546 16.2349 69.9951 16.5541C69.6356 16.8732 69.207 17.1279 68.7337 17.3036C68.2604 17.4792 67.7517 17.5725 67.2368 17.5779V17.5779Z" fill="white"/>
<path d="M7.58094 35.8633C6.80614 35.8712 6.046 35.6803 5.39662 35.3145C4.74723 34.9488 4.23773 34.4246 3.93251 33.8084C3.62729 33.1922 3.54005 32.5116 3.68181 31.8525C3.82357 31.1934 4.18798 30.5854 4.72897 30.1054C5.26996 29.6255 5.96326 29.295 6.72124 29.1559C7.47923 29.0167 8.26788 29.0751 8.98753 29.3236C9.70718 29.5722 10.3255 29.9997 10.7644 30.5522C11.2033 31.1047 11.443 31.7574 11.4533 32.4278C11.4602 32.8734 11.3654 33.3159 11.1744 33.7298C10.9835 34.1438 10.7 34.5211 10.3404 34.8402C9.98072 35.1593 9.55188 35.4139 9.07839 35.5894C8.60489 35.765 8.09605 35.8581 7.58094 35.8633Z" fill="white"/>
<path d="M10.4625 19.3164C10.4625 19.3164 12.8346 21.8565 17.8086 20.5237C18.7892 20.2592 11.7763 22.2958 11.7763 22.2958L10.4625 19.3164Z" fill="white"/>
<path d="M58.4059 26.3439C58.4059 26.3439 61.5516 25.098 63.5146 27.1356C64.5711 28.2351 61.7035 23.9775 61.7035 23.9775L58.4059 26.3439Z" fill="white"/>
</svg>
