<svg width="90" height="57" viewBox="0 0 90 57" fill="none" xmlns="http://www.w3.org/2000/svg">
<path d="M3.48661 24.5405C3.48661 24.5405 -7.00171 14.8272 8.4037 0.363098C8.4037 0.363098 -0.678821 18.595 20.9955 29.0002C20.9955 29.0002 11.8091 30.6011 3.48661 24.5405Z" fill="white"/>
<path d="M74.2136 17.4629C74.2136 17.4629 54.4226 3.16231 34.233 18.4457C34.233 18.4457 15.9974 31.0788 3.5011 24.5404C3.5011 24.5404 20.2064 41.3115 42.1527 25.9778C42.1382 25.9778 60.0292 13.9286 74.2136 17.4629Z" fill="white"/>
<path d="M86.5147 32.7142C86.5147 32.7142 97.0009 42.4275 81.5955 56.8916C81.5955 56.8916 90.6801 38.6597 69.0037 28.2564C69.0037 28.2564 78.1901 26.6554 86.5147 32.7142Z" fill="white"/>
<path d="M15.7939 39.7916C15.7939 39.7916 35.5911 54.0867 55.7745 38.8141C55.7745 38.8141 74.0101 26.181 86.5064 32.7194C86.5064 32.7194 69.799 15.9483 47.8548 31.282C47.8631 31.2784 29.9721 43.3258 15.7939 39.7916Z" fill="white"/>
<path d="M80.8687 21.5042C79.9368 21.5141 79.0223 21.2846 78.241 20.8449C77.4596 20.4052 76.8465 19.7749 76.4791 19.0337C76.1117 18.2925 76.0064 17.4737 76.1767 16.6807C76.347 15.8878 76.7851 15.1563 77.4357 14.5788C78.0863 14.0013 78.9201 13.6036 79.8319 13.4361C80.7436 13.2686 81.6923 13.3387 82.5579 13.6376C83.4236 13.9365 84.1675 14.4507 84.6954 15.1154C85.2234 15.78 85.5118 16.5652 85.5242 17.3716C85.5324 17.9075 85.4185 18.4396 85.1889 18.9374C84.9594 19.4352 84.6187 19.889 84.1863 20.2728C83.754 20.6566 83.2384 20.9629 82.6692 21.1742C82.0999 21.3855 81.4881 21.4976 80.8687 21.5042V21.5042Z" fill="white"/>
<path d="M9.11796 43.4982C8.18605 43.5077 7.2718 43.278 6.49074 42.838C5.70969 42.3981 5.09689 41.7676 4.72979 41.0264C4.36268 40.2852 4.25775 39.4664 4.42825 38.6736C4.59876 37.8808 5.03705 37.1495 5.68773 36.5721C6.33841 35.9948 7.17228 35.5973 8.08395 35.4299C8.99562 35.2626 9.94418 35.3328 10.8097 35.6317C11.6753 35.9307 12.419 36.445 12.9469 37.1096C13.4748 37.7742 13.7631 38.5593 13.7755 39.3656C13.7837 39.9017 13.6697 40.4339 13.44 40.9318C13.2103 41.4298 12.8695 41.8836 12.4369 42.2675C12.0043 42.6513 11.4885 42.9575 10.919 43.1687C10.3495 43.3799 9.7375 43.4919 9.11796 43.4982Z" fill="white"/>
<path d="M12.5837 23.5956C12.5837 23.5956 15.4368 26.6501 21.4191 25.0474C22.5986 24.7294 14.1639 27.1784 14.1639 27.1784L12.5837 23.5956Z" fill="white"/>
<path d="M70.2475 32.0476C70.2475 32.0476 74.0309 30.5491 76.3918 32.9999C77.6626 34.3224 74.2136 29.2016 74.2136 29.2016L70.2475 32.0476Z" fill="white"/>
</svg>
